g g0
v -2.04627 -0.100916 -5.61759
v -2.04627 -0.113482 -5.61759
v 2.31318 -0.525912 -5.61759
v -2.04627 -0.290609 -5.61759
v 2.31318 0.494302 -6.66082
v 2.31318 0.171535 -6.66082
v 2.31318 0.545368 -6.66082
v 2.31318 0.27807 -5.61759
v 2.31318 -0.487996 -5.61759
v 2.31318 0.347984 -5.61759
v -2.04627 -0.61 -5.61759
v -2.04627 -0.0114961 -6.66082
v 2.31318 -0.61 -5.61759
v 2.31318 0.0398886 -6.66082
v 2.31318 0.61 -6.66082
v 2.31318 0.343353 -5.61759
v 2.31318 0.289864 -5.61759
v -2.04627 -0.61 -6.66082
v -2.04627 -0.61 -5.81839
v -2.04627 -0.433159 -6.66082
v -2.04627 0.61 -6.66082
v -2.04627 -0.151742 -6.66082
v -2.04627 -0.389673 -6.66082
v 2.31318 -0.61 -6.17591
v 2.31318 -0.61 -6.66082
v 2.31318 0.61 -5.82048
v 2.31318 0.61 -5.61759
v -2.04627 0.61 -5.61759
v -2.04627 0.61 -6.16808
v -2.04627 0.61 -5.68732
v 2.31318 2.20197 -8.27406
v 2.31318 2.20197 -4.13703
v -2.04627 2.20197 -4.13703
v -2.04627 2.20197 -8.27406
v -2.04627 -2.04627 -4.13703
v 2.31318 -2.04627 -4.13703
v 2.31318 -2.04627 -8.27406
v -2.04627 -2.04627 -8.27406
vn 1 0 0
vn 1 0 0
vn 1 0 0
vn 1 0 0
vn 1 0 0
vn 1 0 0
vn 1 0 0
vn 1 0 0
vn 1 0 0
vn -1 0 0
vn -1 0 0
vn -1 0 0
vn -1 0 0
vn -1 0 0
vn -1 0 0
vn -1 0 0
vn -1 0 0
vn -1 0 0
vn -1 0 0
vn -1 0 0
vn -1 0 0
vn 1 0 0
vn 1 0 0
vn 1 0 0
vn -1 0 0
vn -1 0 0
vn -1 0 0
vn -1 0 0
vn -1 0 0
vn -1 0 0
vn -1 0 0
vn -1 0 0
vn -1 0 0
vn -1 0 0
vn -1 0 0
vn -1 0 0
vn -1 0 0
vn -1 0 0
vn -1 0 0
vn -1 0 0
vn -1 0 0
vn -1 0 0
vn 1 0 0
vn 1 0 0
vn 1 0 0
vn 1 0 0
vn 1 0 0
vn 1 0 0
vn 1 0 0
vn 1 0 0
vn 1 0 0
vn 1 0 0
vn 1 0 0
vn 1 0 0
vn -1 0 0
vn -1 0 0
vn -1 0 0
vn -1 0 0
vn -1 0 0
vn -1 0 0
vn -1 0 0
vn -1 0 0
vn -1 0 0
vn -1 0 0
vn -1 0 0
vn -1 0 0
vn 1 0 0
vn 1 0 0
vn 1 0 0
vn 1 0 0
vn 1 0 0
vn 1 0 0
vn 1 0 0
vn 1 0 0
vn 1 0 0
vn 1 0 0
vn 1 0 0
vn 1 0 0
vn 1 0 0
vn 1 0 0
vn 1 0 0
vn 1 0 0
vn 1 0 0
vn 1 0 0
vn -1 0 0
vn -1 0 0
vn -1 0 0
vn -1 0 0
vn -1 0 0
vn -1 0 0
vn -1 0 0
vn -1 0 0
vn -1 0 0
vn -1 0 0
vn -1 0 0
vn -1 0 0
vn -1 0 0
vn -1 0 0
vn -1 0 0
vn -1 0 0
vn -1 0 0
vn -1 0 0
vn 1 0 0
vn 1 0 0
vn 1 0 0
vn 1 0 0
vn 1 0 0
vn 1 0 0
vn 1 0 0
vn 1 0 0
vn 1 0 0
vn 1 0 0
vn 1 0 0
vn 1 0 0
vn 0 0 1
vn 0 0 1
vn 0 0 1
vn 0 0 1
vn 0 0 -1
vn 0 0 -1
vn 0 0 -1
vn 0 0 -1
vn 0 -1 0
vn 0 -1 0
vn 0 -1 0
vn 0 -1 0
vn 0 1 0
vn 0 1 0
vn 0 1 0
vn 0 1 0
vt 0.668512 0.023881
vt 0.595133 0.46786
vt 0.595133 0.470201
vt 0.668512 0.023881
vt 0.595133 0.470201
vt 0.595133 0.602505
vt 0.668512 0.023881
vt 0.595132 0.434904
vt 0.595133 0.46786
vt 0.477056 0.38754
vt 0.403676 0.0355998
vt 0.477055 0.403038
vt 0.511325 0.530242
vt 0.511325 0.581826
vt 0.54851 0.787552
vt 0.477055 0.403038
vt 0.403676 0.0355998
vt 0.477056 0.410041
vt 0.477055 0.552572
vt 0.403676 0.0355998
vt 0.477056 0.554769
vt 0.668512 0.023881
vt 0.595132 0.375821
vt 0.595132 0.434904
vt 0.511325 0.589966
vt 0.54851 0.787552
vt 0.511325 0.581826
vt 0.511325 0.530242
vt 0.54851 0.787552
vt 0.511325 0.509171
vt 0.511325 0.600258
vt 0.54851 0.787552
vt 0.511325 0.589966
vt 0.477055 0.552572
vt 0.477056 0.410041
vt 0.403676 0.0355998
vt 0.403676 0.0355998
vt 0.477055 0.614224
vt 0.477055 0.56559
vt 0.403676 0.0355998
vt 0.477055 0.56559
vt 0.477056 0.564728
vt 0.560862 0.39379
vt 0.523678 0.231224
vt 0.560862 0.421883
vt 0.595132 0.375821
vt 0.668512 0.023881
vt 0.587686 0.379689
vt 0.560862 0.588539
vt 0.560862 0.489229
vt 0.523678 0.231224
vt 0.560862 0.466793
vt 0.523678 0.231224
vt 0.560862 0.489229
vt 0.477056 0.38754
vt 0.49669 0.397783
vt 0.403676 0.0355998
vt 0.511325 0.405508
vt 0.511325 0.509171
vt 0.54851 0.787552
vt 0.511325 0.600258
vt 0.484578 0.611185
vt 0.54851 0.787552
vt 0.477056 0.564728
vt 0.477056 0.554769
vt 0.403676 0.0355998
vt 0.523678 0.231224
vt 0.560862 0.39379
vt 0.668512 0.023881
vt 0.560862 0.39379
vt 0.587686 0.379689
vt 0.668512 0.023881
vt 0.560862 0.421883
vt 0.523678 0.231224
vt 0.560862 0.428809
vt 0.560862 0.588539
vt 0.523678 0.231224
vt 0.523678 0.775833
vt 0.560862 0.588539
vt 0.523678 0.775833
vt 0.575751 0.594645
vt 0.560862 0.466793
vt 0.560862 0.428809
vt 0.523678 0.231224
vt 0.403676 0.0355998
vt 0.49669 0.397783
vt 0.54851 0.242943
vt 0.49669 0.397783
vt 0.511325 0.405508
vt 0.54851 0.242943
vt 0.511325 0.405508
vt 0.54851 0.787552
vt 0.54851 0.242943
vt 0.54851 0.787552
vt 0.484578 0.611185
vt 0.403676 0.994895
vt 0.484578 0.611185
vt 0.477055 0.614224
vt 0.403676 0.994895
vt 0.477055 0.614224
vt 0.403676 0.0355998
vt 0.403676 0.994895
vt 0.595133 0.602505
vt 0.668512 0.983176
vt 0.668512 0.023881
vt 0.595133 0.602505
vt 0.592494 0.601441
vt 0.668512 0.983176
vt 0.575751 0.594645
vt 0.523678 0.775833
vt 0.668512 0.983176
vt 0.575751 0.594645
vt 0.668512 0.983176
vt 0.592494 0.601441
vt 0.871134 0.787552
vt 0.871134 0.242943
vt 0.54851 0.242943
vt 0.54851 0.787552
vt 0.0562196 0.983176
vt 0.0562196 0.023881
vt 0.668512 0.023881
vt 0.668512 0.983176
vt 0.201053 0.775833
vt 0.0562196 0.983176
vt 0.668512 0.983176
vt 0.523678 0.775833
vt 0.668512 0.023881
vt 0.0562196 0.023881
vt 0.201053 0.231224
vt 0.523678 0.231224
f 35/1/1 2/2/2 1/3/3
f 35/4/4 1/5/5 28/6/6
f 35/7/7 4/8/8 2/9/9
f 13/10/10 36/11/11 3/12/12
f 6/13/13 5/14/14 31/15/15
f 3/16/16 36/17/17 9/18/18
f 8/19/19 36/20/20 17/21/21
f 35/22/22 11/23/23 4/24/24
f 7/25/25 31/26/26 5/27/27
f 6/28/28 31/29/29 14/30/30
f 15/31/31 31/32/32 7/33/33
f 8/34/34 9/35/35 36/36/36
f 36/37/37 27/38/38 10/39/39
f 36/40/40 10/41/41 16/42/42
f 18/43/43 38/44/44 20/45/45
f 11/46/46 35/47/47 19/48/48
f 21/49/49 12/50/50 38/51/51
f 22/52/52 38/53/53 12/54/54
f 13/55/55 24/56/56 36/57/57
f 25/58/58 14/59/59 31/60/60
f 15/61/61 26/62/62 31/63/63
f 16/64/64 17/65/65 36/66/66
f 38/67/67 18/68/68 35/69/69
f 18/70/70 19/71/71 35/72/72
f 20/73/73 38/74/74 23/75/75
f 21/76/76 38/77/77 34/78/78
f 21/79/79 34/80/80 29/81/81
f 22/82/82 23/83/83 38/84/84
f 36/85/85 24/86/86 37/87/87
f 24/88/88 25/89/89 37/90/90
f 25/91/91 31/92/92 37/93/93
f 31/94/94 26/95/95 32/96/96
f 26/97/97 27/98/98 32/99/99
f 27/100/100 36/101/101 32/102/102
f 28/103/103 33/104/104 35/105/105
f 28/106/106 30/107/107 33/108/108
f 29/109/109 34/110/110 33/111/111
f 29/112/112 33/113/113 30/114/114
f 34/115/115 38/116/116 37/117/117 31/118/118
f 32/119/119 36/120/120 35/121/121 33/122/122
f 31/123/123 32/124/124 33/125/125 34/126/126
f 35/127/127 36/128/128 37/129/129 38/130/130
