g g0
v 8.22595 -0.61 -6.66082
v 6.92752 -0.61 -5.61759
v 4.85772 0.61 -5.61759
v 6.42469 0.61 -5.61759
v 6.92752 0.61 -3.98559
v 6.92752 0.61 -5.61759
v 6.59782 0.61 -5.61759
v 8.22595 0.61 -6.66082
v 6.90009 0.61 -5.61759
v 2.31318 -0.525912 -5.61759
v 8.22595 0.61 -2.04627
v 6.92752 -0.218245 -2.04627
v 8.22595 -0.61 -2.04627
v 8.22595 -0.0555469 -2.04627
v 8.22595 0.0344244 -2.04627
v 2.31318 0.494302 -6.66082
v 2.31318 0.171535 -6.66082
v 2.31318 0.545368 -6.66082
v 2.31318 0.27807 -5.61759
v 2.31318 -0.487996 -5.61759
v 2.31318 0.347984 -5.61759
v 6.92752 0.61 -2.04627
v 7.73342 0.61 -2.04627
v 8.22595 0.495123 -2.04627
v 7.73342 -0.61 -2.04627
v 8.22595 0.187398 -2.04627
v 8.22595 0.24772 -2.04627
v 2.31318 -0.61 -5.61759
v 2.31318 0.0398886 -6.66082
v 2.31318 0.61 -6.66082
v 2.31318 0.343353 -5.61759
v 2.31318 0.289864 -5.61759
v 6.92752 -0.61 -2.04627
v 7.62973 -0.61 -2.04627
v 7.34578 -0.61 -2.04627
v 2.31318 -0.61 -6.17591
v 2.31318 -0.61 -6.66082
v 2.31318 0.61 -5.82048
v 2.31318 0.61 -5.61759
vn 0 -1 0
vn 0 -1 0
vn 0 -1 0
vn 0 -1 0
vn 0 -1 0
vn 0 -1 0
vn 0 -1 0
vn 0 -1 0
vn 0 -1 0
vn 0 -1 0
vn 0 -1 0
vn 0 -1 0
vn 0 -1 0
vn 0 -1 0
vn 0 -1 0
vn 0 0 1
vn 0 0 1
vn 0 0 1
vn 0 0 1
vn 0 0 1
vn 0 0 1
vn 0 0 1
vn 0 0 1
vn 1 0 0
vn 1 0 0
vn 1 0 0
vn 1 0 0
vn 1 0 0
vn 0 0 -1
vn 0 0 -1
vn 0 0 -1
vn 0 0 -1
vn 0 0 -1
vn 0 0 -1
vn 0 0 -1
vn 0 0 -1
vn 0 0 -1
vn 0 0 -1
vn 0 0 -1
vn 0 0 -1
vn 0 0 -1
vn 0 0 -1
vn -1 0 0
vn -1 0 0
vn -1 0 0
vn -1 0 0
vn -1 0 0
vn -1 0 0
vn -1 0 0
vn -1 0 0
vn -1 0 0
vn 0 -1 0
vn 0 -1 0
vn 0 -1 0
vn 0 -1 0
vn 0 -1 0
vn 0 -1 0
vn 0 1 0
vn 0 1 0
vn 0 1 0
vn 0 1 0
vn 0 1 0
vn 0 1 0
vn 0 1 0
vn 0 1 0
vn 0 -1 0
vn 0 -1 0
vn 0 -1 0
vn 0 -1 0
vn 0 1 0
vn 0 1 0
vn 0 1 0
vn 0 1 0
vn 0 1 0
vn 0 1 0
vn 0 1 0
vn 0 -1 0
vn 0 -1 0
vn 0 -1 0
vn 0 -1 0
vn 0 1 0
vn 0 1 0
vn 0 1 0
vt 0.886166 0.570776
vt 0.887395 0.570939
vt 0.88555 0.560052
vt 0.909659 0.573851
vt 0.88555 0.560052
vt 0.90133 0.572773
vt 0.271555 0.596202
vt 0.158988 0.571771
vt 0.183096 0.58557
vt 0.88555 0.560052
vt 0.785552 0.578713
vt 0.886166 0.570776
vt 0.90133 0.572773
vt 0.88555 0.560052
vt 0.887395 0.570939
vt 0.158988 0.442228
vt 0.158988 0.571771
vt 0.511325 0.600258
vt 0.511325 0.589966
vt 0.511325 0.581826
vt 0.511325 0.530242
vt 0.511325 0.509171
vt 0.511325 0.405508
vt 0.886166 0.416677
vt 0.886166 0.570776
vt 0.636652 0.586785
vt 0.636652 0.457144
vt 0.636652 0.396049
vt 0.477056 0.554769
vt 0.477056 0.564728
vt 0.477055 0.56559
vt 0.477055 0.614224
vt 0.271555 0.596202
vt 0.183096 0.58557
vt 0.174768 0.584491
vt 0.160832 0.582658
vt 0.159604 0.582495
vt 0.159604 0.428396
vt 0.477056 0.38754
vt 0.477055 0.403038
vt 0.477056 0.410041
vt 0.477055 0.552572
vt 0.609886 0.412176
vt 0.609886 0.485774
vt 0.609886 0.497748
vt 0.609886 0.51811
vt 0.609886 0.526137
vt 0.609886 0.559026
vt 0.609886 0.574268
vt 0.88555 0.560052
vt 0.88555 0.43051
vt 0.88555 0.560052
vt 0.609886 0.574268
vt 0.619031 0.578562
vt 0.477055 0.614224
vt 0.484578 0.611185
vt 0.271555 0.596202
vt 0.88555 0.43051
vt 0.886166 0.416677
vt 0.636652 0.396049
vt 0.62705 0.401809
vt 0.621101 0.405392
vt 0.619031 0.406641
vt 0.609886 0.412176
vt 0.88555 0.43051
vt 0.158988 0.571771
vt 0.271555 0.596202
vt 0.484578 0.611185
vt 0.511325 0.600258
vt 0.159604 0.428396
vt 0.158988 0.442228
vt 0.49669 0.397783
vt 0.477056 0.38754
vt 0.158988 0.442228
vt 0.511325 0.405508
vt 0.49669 0.397783
vt 0.619031 0.578562
vt 0.636652 0.586785
vt 0.785552 0.578713
vt 0.88555 0.560052
vt 0.621101 0.405392
vt 0.619031 0.406641
vt 0.88555 0.43051
f 6/1/1 9/2/2 8/3/3
f 4/4/4 8/5/5 7/6/6
f 3/7/7 8/8/8 4/9/9
f 8/10/10 5/11/11 6/12/12
f 7/13/13 8/14/14 9/15/15
f 1/16/16 8/17/17 30/18/18 18/19/19 16/20/20 17/21/21 29/22/22 37/23/23
f 2/24/24 6/25/25 22/26/26 12/27/27 33/28/28
f 32/29/29 31/30/30 21/31/31 39/32/32 3/33/33 4/34/34 7/35/35 9/36/36 6/37/37 2/38/38 28/39/39 10/40/40 20/41/41 19/42/42
f 13/43/43 14/44/44 15/45/45 26/46/46 27/47/47 24/48/48 11/49/49 8/50/50 1/51/51
f 8/52/52 11/53/53 23/54/54
f 39/55/55 38/56/56 3/57/57
f 1/58/58 2/59/59 33/60/60 35/61/61 34/62/62
f 25/63/63 13/64/64 1/65/65
f 8/66/66 3/67/67 38/68/68 30/69/69
f 2/70/70 1/71/71 36/72/72 28/73/73
f 1/74/74 37/75/75 36/76/76
f 23/77/77 22/78/78 5/79/79 8/80/80
f 34/81/81 25/82/82 1/83/83
