g g0
v -2.00179 -2.04627 3.95909
v 2.35766 -2.04627 3.95909
v 2.35766 -2.04627 8.09612
v -2.00179 -2.04627 8.09612
v -2.00179 2.20197 3.95909
v -2.00179 2.20197 8.09612
v 2.35766 2.20197 8.09612
v 2.35766 2.20197 3.95909
v -2.00179 0.61 6.54583
v -2.00179 0.61 5.77362
v -2.00179 -0.61 6.08352
v -2.00179 -0.61 5.50417
v 2.35766 0.61 6.66082
v 2.35766 0.61 6.15178
v 2.35766 -0.61 5.50417
v 2.35766 -0.61 5.67918
v -2.00179 0.21556 5.50417
v -2.00179 0.204806 5.50417
v -2.00179 0.61 5.50417
v -2.00179 -0.61 6.66082
v -2.00179 0.61 6.62872
v -2.00179 0.61 6.66082
v 2.35766 -0.0854345 6.66082
v 2.35766 0.61 5.50938
v 2.35766 -0.323908 5.50417
v 2.35766 -0.363873 5.50417
v 2.35766 -0.61 6.66082
v -2.00179 0.104296 5.50417
v -2.00179 0.196596 6.66082
v -2.00179 0.148444 6.66082
v -2.00179 -0.459655 5.50417
v 2.35766 -0.174834 6.66082
v 2.35766 -0.394234 5.50417
v 2.35766 0.593843 5.50417
v 2.35766 0.61 5.50417
v 2.35766 -0.572393 6.66082
v 2.35766 -0.575356 6.66082
vn 0 1 0
vn 0 1 0
vn 0 1 0
vn 0 1 0
vn 0 -1 0
vn 0 -1 0
vn 0 -1 0
vn 0 -1 0
vn 0 0 -1
vn 0 0 -1
vn 0 0 -1
vn 0 0 -1
vn 0 0 1
vn 0 0 1
vn 0 0 1
vn 0 0 1
vn 1 0 0
vn 1 0 0
vn 1 0 0
vn 1 0 0
vn 1 0 0
vn 1 0 0
vn 1 0 0
vn 1 0 0
vn 1 0 0
vn 1 0 0
vn 1 0 0
vn 1 0 0
vn -1 0 0
vn -1 0 0
vn -1 0 0
vn -1 0 0
vn -1 0 0
vn -1 0 0
vn -1 0 0
vn -1 0 0
vn -1 0 0
vn -1 0 0
vn -1 0 0
vn -1 0 0
vn -1 0 0
vn -1 0 0
vn -1 0 0
vn -1 0 0
vn -1 0 0
vn -1 0 0
vn 1 0 0
vn 1 0 0
vn 1 0 0
vn 1 0 0
vn 1 0 0
vn 1 0 0
vn 1 0 0
vn 1 0 0
vn 1 0 0
vn 1 0 0
vn 1 0 0
vn 1 0 0
vn 1 0 0
vn 1 0 0
vn 1 0 0
vn 1 0 0
vn 1 0 0
vn 1 0 0
vn 1 0 0
vn 1 0 0
vn 1 0 0
vn -1 0 0
vn -1 0 0
vn -1 0 0
vn -1 0 0
vn -1 0 0
vn -1 0 0
vn -1 0 0
vn -1 0 0
vn -1 0 0
vn -1 0 0
vn -1 0 0
vn -1 0 0
vn 1 0 0
vn 1 0 0
vn 1 0 0
vn 1 0 0
vn 1 0 0
vn 1 0 0
vn 1 0 0
vn 1 0 0
vn 1 0 0
vn 1 0 0
vn 1 0 0
vn 1 0 0
vn 1 0 0
vn 1 0 0
vn 1 0 0
vn 1 0 0
vn 1 0 0
vn 1 0 0
vn -1 0 0
vn -1 0 0
vn -1 0 0
vn -1 0 0
vn -1 0 0
vn -1 0 0
vn -1 0 0
vn -1 0 0
vn -1 0 0
vn -1 0 0
vn -1 0 0
vn -1 0 0
vn -1 0 0
vn -1 0 0
vn -1 0 0
vn 1 0 0
vn 1 0 0
vn 1 0 0
vn -1 0 0
vn -1 0 0
vn -1 0 0
vn -1 0 0
vn -1 0 0
vn -1 0 0
vn -1 0 0
vn -1 0 0
vn -1 0 0
vn -1 0 0
vn -1 0 0
vn -1 0 0
vt 0.428713 0.238686
vt 0.751328 0.239393
vt 0.898277 0.0336369
vt 0.286034 0.0297659
vt 0.898277 0.989045
vt 0.751328 0.783289
vt 0.428713 0.783996
vt 0.286034 0.992916
vt 0.751328 0.783289
vt 0.751328 0.239393
vt 0.428713 0.238686
vt 0.428713 0.783996
vt 0.286034 0.992916
vt 0.286034 0.0297659
vt 0.898277 0.0336369
vt 0.898277 0.989045
vt 0.37039 0.605637
vt 0.428713 0.783996
vt 0.393896 0.595793
vt 0.37039 0.605637
vt 0.286034 0.992916
vt 0.428713 0.783996
vt 0.360843 0.384565
vt 0.380455 0.395054
vt 0.428713 0.238686
vt 0.286034 0.0297659
vt 0.360843 0.384565
vt 0.428713 0.238686
vt 0.784169 0.594172
vt 0.751328 0.239393
vt 0.751328 0.783289
vt 0.799074 0.600168
vt 0.784169 0.594172
vt 0.751328 0.783289
vt 0.898277 0.989045
vt 0.799074 0.600168
vt 0.751328 0.783289
vt 0.821466 0.38524
vt 0.898277 0.989045
vt 0.898277 0.0336369
vt 0.814983 0.388536
vt 0.821466 0.38524
vt 0.898277 0.0336369
vt 0.751328 0.239393
vt 0.814983 0.388536
vt 0.898277 0.0336369
vt 0.360843 0.53484
vt 0.286034 0.0297659
vt 0.360843 0.536829
vt 0.360843 0.609593
vt 0.286034 0.992916
vt 0.37039 0.605637
vt 0.360843 0.609593
vt 0.286034 0.0297659
vt 0.286034 0.992916
vt 0.39698 0.403998
vt 0.428713 0.238686
vt 0.380455 0.395054
vt 0.39698 0.403998
vt 0.428713 0.783996
vt 0.428713 0.238686
vt 0.39698 0.594491
vt 0.396128 0.59485
vt 0.428713 0.783996
vt 0.393896 0.595793
vt 0.428713 0.783996
vt 0.396128 0.59485
vt 0.784169 0.594172
vt 0.784169 0.485883
vt 0.751328 0.239393
vt 0.799074 0.600168
vt 0.898277 0.989045
vt 0.821268 0.60899
vt 0.821466 0.430156
vt 0.821466 0.437478
vt 0.898277 0.989045
vt 0.784169 0.404409
vt 0.814983 0.388536
vt 0.751328 0.239393
vt 0.360843 0.516237
vt 0.286034 0.0297659
vt 0.360843 0.53484
vt 0.360843 0.609593
vt 0.360843 0.536829
vt 0.286034 0.0297659
vt 0.39698 0.522392
vt 0.39698 0.529929
vt 0.428713 0.783996
vt 0.39698 0.522392
vt 0.428713 0.783996
vt 0.39698 0.403998
vt 0.39698 0.594491
vt 0.428713 0.783996
vt 0.39698 0.529929
vt 0.360843 0.384565
vt 0.286034 0.0297659
vt 0.360843 0.412107
vt 0.784169 0.471954
vt 0.751328 0.239393
vt 0.784169 0.485883
vt 0.898277 0.989045
vt 0.821466 0.424598
vt 0.821466 0.430156
vt 0.898277 0.989045
vt 0.821466 0.38524
vt 0.821466 0.424598
vt 0.821466 0.606116
vt 0.898277 0.989045
vt 0.821466 0.437478
vt 0.821466 0.609068
vt 0.821268 0.60899
vt 0.898277 0.989045
vt 0.360843 0.516237
vt 0.360843 0.412107
vt 0.286034 0.0297659
vt 0.784169 0.471954
vt 0.784169 0.410222
vt 0.751328 0.239393
vt 0.784169 0.409763
vt 0.751328 0.239393
vt 0.784169 0.410222
vt 0.784169 0.404409
vt 0.751328 0.239393
vt 0.784169 0.409763
vt 0.821466 0.609068
vt 0.898277 0.989045
vt 0.821466 0.606116
f 4/1/1 3/2/2 2/3/3 1/4/4
f 8/5/5 7/6/6 6/7/7 5/8/8
f 7/9/9 3/10/10 4/11/11 6/12/12
f 5/13/13 1/14/14 2/15/15 8/16/16
f 10/17/17 6/18/18 9/19/19
f 10/20/20 5/21/21 6/22/22
f 12/23/23 11/24/24 4/25/25
f 1/26/26 12/27/27 4/28/28
f 13/29/29 3/30/30 7/31/31
f 14/32/32 13/33/33 7/34/34
f 8/35/35 14/36/36 7/37/37
f 15/38/38 8/39/39 2/40/40
f 16/41/41 15/42/42 2/43/43
f 3/44/44 16/45/45 2/46/46
f 18/47/47 1/48/48 17/49/49
f 19/50/50 5/51/51 10/52/52
f 19/53/53 1/54/54 5/55/55
f 20/56/56 4/57/57 11/58/58
f 20/59/59 6/60/60 4/61/61
f 22/62/62 21/63/63 6/64/64
f 9/65/65 6/66/66 21/67/67
f 13/68/68 23/69/69 3/70/70
f 14/71/71 8/72/72 24/73/73
f 26/74/74 25/75/75 8/76/76
f 27/77/77 16/78/78 3/79/79
f 28/80/80 1/81/81 18/82/82
f 19/83/83 17/84/84 1/85/85
f 30/86/86 29/87/87 6/88/88
f 30/89/89 6/90/90 20/91/91
f 22/92/92 6/93/93 29/94/94
f 12/95/95 1/96/96 31/97/97
f 32/98/98 3/99/99 23/100/100
f 8/101/101 33/102/102 26/103/103
f 8/104/104 15/105/105 33/106/106
f 34/107/107 8/108/108 25/109/109
f 35/110/110 24/111/111 8/112/112
f 28/113/113 31/114/114 1/115/115
f 32/116/116 36/117/117 3/118/118
f 37/119/119 3/120/120 36/121/121
f 27/122/122 3/123/123 37/124/124
f 35/125/125 8/126/126 34/127/127
