g g0
v -2.00179 0.61 6.54583
v -2.00179 0.61 5.77362
v -2.00179 -0.61 6.08352
v -2.00179 -0.61 5.50417
v -7.17777 0.61 2.17972
v -7.3462 0.61 2.17972
v -7.17777 -0.61 2.17972
v -7.46422 -0.61 2.17972
v -2.00179 0.21556 5.50417
v -2.00179 0.204806 5.50417
v -2.00179 0.61 5.50417
v -2.00179 -0.61 6.66082
v -2.00179 0.61 6.62872
v -2.00179 0.61 6.66082
v -7.17777 0.353063 2.17972
v -7.46422 0.61 2.17972
v -8.22595 0.507815 2.17972
v -8.22595 0.447692 2.17972
v -8.22595 0.246708 2.17972
v -8.22595 -0.61 2.17972
v -2.00179 0.104296 5.50417
v -2.00179 0.196596 6.66082
v -2.00179 0.148444 6.66082
v -2.00179 -0.459655 5.50417
v -8.22595 0.61 2.17972
v -7.17777 0.200751 2.17972
v -7.17777 -0.549705 2.17972
v -7.17777 -0.513626 2.17972
v -8.22595 0.19962 2.17972
v -7.17777 -0.245325 2.17972
v -7.17777 -0.452308 2.17972
v -6.42397 0.61 5.50417
v -8.22595 0.61 6.66082
v -5.10798 0.61 5.50417
v -7.17777 0.61 5.50417
v -7.17777 -0.61 5.50417
v -8.22595 -0.61 6.66082
v -7.17777 0.61 3.87218
vn 0 -1 0
vn 0 -1 0
vn 0 -1 0
vn 0 -1 0
vn 0 1 0
vn 0 1 0
vn 0 1 0
vn 0 1 0
vn 0 1 0
vn 0 1 0
vn 0 1 0
vn 0 1 0
vn 0 1 0
vn 0 1 0
vn 0 1 0
vn 0 1 0
vn 0 1 0
vn 0 1 0
vn 0 -1 0
vn 0 -1 0
vn 0 -1 0
vn 0 -1 0
vn 0 -1 0
vn 0 -1 0
vn 0 -1 0
vn 0 -1 0
vn 0 -1 0
vn 0 -1 0
vn 0 -1 0
vn 0 -1 0
vn 0 -1 0
vn 0 -1 0
vn 0 -1 0
vn 0 -1 0
vn 0 0 -1
vn 0 0 -1
vn 0 0 -1
vn 0 0 -1
vn 0 0 -1
vn 0 0 -1
vn 1 0 0
vn 1 0 0
vn 1 0 0
vn 1 0 0
vn 1 0 0
vn 1 0 0
vn 1 0 0
vn 1 0 0
vn -1 0 0
vn -1 0 0
vn -1 0 0
vn -1 0 0
vn -1 0 0
vn -1 0 0
vn -1 0 0
vn -1 0 0
vn -1 0 0
vn -1 0 0
vn 0 0 1
vn 0 0 1
vn 0 0 1
vn 0 0 1
vn 0 0 1
vn 0 0 1
vn 0 0 1
vn 0 0 1
vn 0 0 1
vn 0 0 1
vn 0 -1 0
vn 0 -1 0
vn 0 -1 0
vn 0 -1 0
vn 0 -1 0
vn 0 -1 0
vt 0.815567 0.566544
vt 0.912577 0.559713
vt 0.687675 0.569984
vt 0.690353 0.571054
vt 0.694311 0.3964
vt 0.687675 0.399815
vt 0.912577 0.413057
vt 0.928834 0.424862
vt 0.912577 0.413057
vt 0.687675 0.399815
vt 0.672078 0.407891
vt 0.0180461 0.428682
vt 0.0343032 0.440487
vt 0.380455 0.395054
vt 0.360843 0.384565
vt 0.39698 0.403998
vt 0.380455 0.395054
vt 0.0343032 0.440487
vt 0.928834 0.550562
vt 0.672078 0.563718
vt 0.687675 0.569984
vt 0.912577 0.559713
vt 0.690353 0.571054
vt 0.694311 0.572634
vt 0.815567 0.566544
vt 0.360843 0.609593
vt 0.37039 0.605637
vt 0.120197 0.588158
vt 0.396128 0.59485
vt 0.39698 0.594491
vt 0.0343032 0.566187
vt 0.120197 0.588158
vt 0.37039 0.605637
vt 0.393896 0.595793
vt 0.0343032 0.566187
vt 0.39698 0.594491
vt 0.39698 0.529929
vt 0.39698 0.522392
vt 0.39698 0.403998
vt 0.0343032 0.440487
vt 0.672078 0.543008
vt 0.672078 0.550685
vt 0.672078 0.563718
vt 0.928834 0.550562
vt 0.928834 0.424862
vt 0.672078 0.407891
vt 0.672078 0.511295
vt 0.672078 0.517319
vt 0.912577 0.559713
vt 0.694311 0.572634
vt 0.694311 0.535543
vt 0.694311 0.513508
vt 0.694311 0.448957
vt 0.694311 0.419086
vt 0.694311 0.410256
vt 0.694311 0.405066
vt 0.694311 0.3964
vt 0.912577 0.413057
vt 0.360843 0.384565
vt 0.360843 0.412107
vt 0.360843 0.516237
vt 0.360843 0.53484
vt 0.360843 0.536829
vt 0.360843 0.609593
vt 0.120197 0.588158
vt 0.0509984 0.579682
vt 0.0180461 0.575338
vt 0.0180461 0.428682
vt 0.120197 0.588158
vt 0.0343032 0.566187
vt 0.0509984 0.579682
vt 0.912577 0.559713
vt 0.94553 0.564057
vt 0.928834 0.550562
f 38/1/1 35/2/2 16/3/3 6/4/4
f 7/5/5 8/6/6 36/7/7
f 37/8/8 36/9/9 8/10/10 20/11/11
f 36/12/12 37/13/13 3/14/14 4/15/15
f 12/16/16 3/17/17 37/18/18
f 33/19/19 25/20/20 16/21/21 35/22/22
f 6/23/23 5/24/24 38/25/25
f 11/26/26 2/27/27 34/28/28
f 13/29/29 14/30/30 33/31/31 34/32/32 2/33/33 1/34/34
f 33/35/35 14/36/36 22/37/37 23/38/38 12/39/39 37/40/40
f 18/41/41 17/42/42 25/43/43 33/44/44 37/45/45 20/46/46 29/47/47 19/48/48
f 35/49/49 5/50/50 15/51/51 26/52/52 30/53/53 31/54/54 28/55/55 27/56/56 7/57/57 36/58/58
f 4/59/59 24/60/60 21/61/61 10/62/62 9/63/63 11/64/64 34/65/65 32/66/66 35/67/67 36/68/68
f 34/69/69 33/70/70 32/71/71
f 35/72/72 32/73/73 33/74/74
