g g0
v -5.60501 2.20197 2.17972
v -5.60501 -2.04627 2.17972
v -5.60501 -2.04627 -1.9573
v -5.60501 2.20197 -1.9573
v -9.96445 2.20197 -1.9573
v -9.96445 -2.04627 -1.9573
v -9.96445 -2.04627 2.17972
v -9.96445 2.20197 2.17972
v -7.23865 0.61 -1.9573
v -7.17777 0.61 -1.9573
v -7.75789 0.61 -1.9573
v -7.17777 0.61 2.17972
v -7.3462 0.61 2.17972
v -7.17777 -0.61 2.17972
v -7.46422 -0.61 2.17972
v -8.22595 -0.389129 -1.9573
v -8.22595 -0.35212 -1.9573
v -7.82068 -0.61 -1.9573
v -7.17777 -0.61 -1.9573
v -8.22595 0.0465405 -1.9573
v -8.22595 -0.17925 -1.9573
v -7.82068 0.61 -1.9573
v -7.17777 0.353063 2.17972
v -7.46422 0.61 2.17972
v -8.22595 0.507815 2.17972
v -8.22595 0.447692 2.17972
v -8.22595 0.246708 2.17972
v -8.22595 -0.61 2.17972
v -8.22595 -0.61 -1.9573
v -7.17777 0.208486 -1.9573
v -8.22595 0.107841 -1.9573
v -8.22595 0.61 -1.9573
v -8.22595 0.61 2.17972
v -7.17777 0.200751 2.17972
v -7.17777 -0.549705 2.17972
v -7.17777 -0.513626 2.17972
v -8.22595 0.19962 2.17972
v -7.17777 -0.245325 2.17972
v -7.17777 -0.452308 2.17972
vn -1 0 0
vn -1 0 0
vn -1 0 0
vn -1 0 0
vn 1 0 0
vn 1 0 0
vn 1 0 0
vn 1 0 0
vn 0 -1 0
vn 0 -1 0
vn 0 -1 0
vn 0 -1 0
vn 0 1 0
vn 0 1 0
vn 0 1 0
vn 0 1 0
vn 0 0 1
vn 0 0 1
vn 0 0 1
vn 0 0 1
vn 0 0 1
vn 0 0 1
vn 0 0 1
vn 0 0 1
vn 0 0 1
vn 0 0 1
vn 0 0 1
vn 0 0 1
vn 0 0 -1
vn 0 0 -1
vn 0 0 -1
vn 0 0 -1
vn 0 0 -1
vn 0 0 -1
vn 0 0 -1
vn 0 0 -1
vn 0 0 -1
vn 0 0 -1
vn 0 0 -1
vn 0 0 -1
vn 0 0 -1
vn 0 0 -1
vn 0 0 -1
vn 0 0 1
vn 0 0 1
vn 0 0 1
vn 0 0 1
vn 0 0 1
vn 0 0 1
vn 0 0 1
vn 0 0 1
vn 0 0 1
vn 0 0 1
vn 0 0 1
vn 0 0 1
vn 0 0 1
vn 0 0 1
vn 0 0 1
vn 0 0 -1
vn 0 0 -1
vn 0 0 -1
vn 0 0 -1
vn 0 0 -1
vn 0 0 -1
vn 0 0 -1
vn 0 0 -1
vn 0 0 -1
vn 0 0 -1
vn 0 0 -1
vn 0 0 -1
vn 0 0 -1
vn 0 0 -1
vn 0 0 -1
vn 0 0 -1
vn 0 0 -1
vn 0 0 -1
vn 0 0 1
vn 0 0 1
vn 0 0 1
vn 0 0 1
vn 0 0 1
vn 0 0 1
vn 0 0 1
vn 0 0 1
vn 0 0 1
vn 0 0 1
vn 0 0 1
vn 0 0 1
vn 0 0 1
vn 0 0 1
vn 0 0 1
vn 0 0 1
vn 0 0 1
vn 0 0 1
vn 0 0 1
vn 0 0 1
vn 0 0 1
vn 0 0 -1
vn 0 0 -1
vn 0 0 -1
vn 0 0 -1
vn 0 0 -1
vn 0 0 -1
vn 0 0 -1
vn 0 0 -1
vn 0 0 -1
vn 0 0 -1
vn 0 0 -1
vn 0 0 -1
vn 0 0 -1
vn 0 0 -1
vn 0 0 -1
vn 0 0 -1
vn 0 0 -1
vn 0 0 -1
vn 0 0 1
vn 0 0 1
vn 0 0 1
vn 0 0 1
vn 0 0 1
vn 0 0 1
vn 0 0 -1
vn 0 0 -1
vn 0 0 -1
vn 0 0 -1
vn 0 0 -1
vn 0 0 -1
vn 0 0 -1
vn 0 0 -1
vn 0 0 -1
vn 0 0 -1
vn 0 0 -1
vn 0 0 -1
vt 0.312736 0.870783
vt 0.312736 0.120649
vt 0.741173 0.128299
vt 0.741173 0.863132
vt 0.6448 0.720056
vt 0.6448 0.271376
vt 0.394429 0.269669
vt 0.394429 0.721763
vt 0.312736 0.870783
vt 0.741173 0.863132
vt 0.6448 0.720056
vt 0.394429 0.721763
vt 0.6448 0.271376
vt 0.741173 0.128299
vt 0.312736 0.120649
vt 0.394429 0.269669
vt 0.352756 0.573741
vt 0.312736 0.870783
vt 0.353984 0.573138
vt 0.352756 0.573741
vt 0.312736 0.120649
vt 0.312736 0.870783
vt 0.363734 0.568337
vt 0.353984 0.573138
vt 0.312736 0.870783
vt 0.363734 0.568337
vt 0.312736 0.870783
vt 0.394429 0.721763
vt 0.694311 0.572634
vt 0.741173 0.863132
vt 0.741173 0.128299
vt 0.694311 0.572634
vt 0.690353 0.571054
vt 0.741173 0.863132
vt 0.690353 0.571054
vt 0.6448 0.720056
vt 0.741173 0.863132
vt 0.687675 0.399815
vt 0.694311 0.3964
vt 0.741173 0.128299
vt 0.6448 0.271376
vt 0.687675 0.399815
vt 0.741173 0.128299
vt 0.371537 0.440131
vt 0.394429 0.269669
vt 0.371537 0.435356
vt 0.352756 0.394974
vt 0.364831 0.402636
vt 0.394429 0.269669
vt 0.312736 0.120649
vt 0.352756 0.394974
vt 0.394429 0.269669
vt 0.371537 0.462461
vt 0.371537 0.491665
vt 0.394429 0.269669
vt 0.364831 0.567795
vt 0.363734 0.568337
vt 0.394429 0.721763
vt 0.694311 0.572634
vt 0.741173 0.128299
vt 0.694311 0.535543
vt 0.687675 0.569984
vt 0.6448 0.720056
vt 0.690353 0.571054
vt 0.672078 0.543008
vt 0.6448 0.720056
vt 0.672078 0.550685
vt 0.672078 0.517319
vt 0.6448 0.720056
vt 0.672078 0.543008
vt 0.672078 0.407891
vt 0.6448 0.271376
vt 0.6448 0.720056
vt 0.672078 0.407891
vt 0.687675 0.399815
vt 0.6448 0.271376
vt 0.371537 0.40691
vt 0.394429 0.269669
vt 0.364831 0.402636
vt 0.312736 0.120649
vt 0.352756 0.5149
vt 0.352756 0.394974
vt 0.312736 0.120649
vt 0.352756 0.573741
vt 0.352756 0.5149
vt 0.371537 0.462461
vt 0.394429 0.269669
vt 0.371537 0.440131
vt 0.371537 0.499597
vt 0.394429 0.269669
vt 0.371537 0.491665
vt 0.371537 0.56448
vt 0.394429 0.721763
vt 0.394429 0.269669
vt 0.371537 0.56448
vt 0.364831 0.567795
vt 0.394429 0.721763
vt 0.672078 0.563718
vt 0.6448 0.720056
vt 0.687675 0.569984
vt 0.694311 0.535543
vt 0.741173 0.128299
vt 0.694311 0.513508
vt 0.694311 0.410256
vt 0.741173 0.128299
vt 0.694311 0.405066
vt 0.694311 0.3964
vt 0.694311 0.405066
vt 0.741173 0.128299
vt 0.672078 0.511295
vt 0.6448 0.720056
vt 0.672078 0.517319
vt 0.672078 0.511295
vt 0.672078 0.407891
vt 0.6448 0.720056
vt 0.371537 0.40691
vt 0.371537 0.435356
vt 0.394429 0.269669
vt 0.371537 0.56448
vt 0.394429 0.269669
vt 0.371537 0.499597
vt 0.672078 0.563718
vt 0.672078 0.550685
vt 0.6448 0.720056
vt 0.694311 0.448957
vt 0.694311 0.513508
vt 0.741173 0.128299
vt 0.694311 0.419086
vt 0.741173 0.128299
vt 0.694311 0.410256
vt 0.694311 0.448957
vt 0.741173 0.128299
vt 0.694311 0.419086
f 4/1/1 3/2/2 2/3/3 1/4/4
f 8/5/5 7/6/6 6/7/7 5/8/8
f 4/9/9 1/10/10 8/11/11 5/12/12
f 7/13/13 2/14/14 3/15/15 6/16/16
f 10/17/17 4/18/18 9/19/19
f 10/20/20 3/21/21 4/22/22
f 11/23/23 9/24/24 4/25/25
f 11/26/26 4/27/27 5/28/28
f 12/29/29 1/30/30 2/31/31
f 12/32/32 13/33/33 1/34/34
f 13/35/35 8/36/36 1/37/37
f 15/38/38 14/39/39 2/40/40
f 7/41/41 15/42/42 2/43/43
f 17/44/44 6/45/45 16/46/46
f 19/47/47 18/48/48 6/49/49
f 3/50/50 19/51/51 6/52/52
f 21/53/53 20/54/54 6/55/55
f 22/56/56 11/57/57 5/58/58
f 12/59/59 2/60/60 23/61/61
f 24/62/62 8/63/63 13/64/64
f 26/65/65 8/66/66 25/67/67
f 27/68/68 8/69/69 26/70/70
f 28/71/71 7/72/72 8/73/73
f 28/74/74 15/75/75 7/76/76
f 29/77/77 6/78/78 18/79/79
f 3/80/80 30/81/81 19/82/82
f 3/83/83 10/84/84 30/85/85
f 21/86/86 6/87/87 17/88/88
f 31/89/89 6/90/90 20/91/91
f 32/92/92 5/93/93 6/94/94
f 32/95/95 22/96/96 5/97/97
f 33/98/98 8/99/99 24/100/100
f 23/101/101 2/102/102 34/103/103
f 36/104/104 2/105/105 35/106/106
f 14/107/107 35/108/108 2/109/109
f 37/110/110 8/111/111 27/112/112
f 37/113/113 28/114/114 8/115/115
f 29/116/116 16/117/117 6/118/118
f 32/119/119 6/120/120 31/121/121
f 33/122/122 25/123/123 8/124/124
f 38/125/125 34/126/126 2/127/127
f 39/128/128 2/129/129 36/130/130
f 38/131/131 2/132/132 39/133/133
